<mxfile host="app.diagrams.net" modified="2021-09-03T08:58:46.565Z" agent="5.0 (Windows NT 10.0; Win64; x64) AppleWebKit/537.36 (KHTML, like Gecko) Chrome/92.0.4515.131 Safari/537.36" etag="-TXeGFX-hzgzZ135sUVw" version="14.9.6" type="github">
  <diagram name="Page-1" id="12e1b939-464a-85fe-373e-61e167be1490">
    <mxGraphModel dx="1422" dy="738" grid="0" gridSize="10" guides="1" tooltips="1" connect="1" arrows="1" fold="1" page="1" pageScale="1.5" pageWidth="1169" pageHeight="826" background="none" math="0" shadow="1">
      <root>
        <mxCell id="0" />
        <mxCell id="1" parent="0" />
        <mxCell id="3XGmtLu8GrF6CK6sY6nf-18" style="edgeStyle=orthogonalEdgeStyle;rounded=0;orthogonalLoop=1;jettySize=auto;html=1;exitX=0.25;exitY=0;exitDx=0;exitDy=0;entryX=0.5;entryY=1;entryDx=0;entryDy=0;endArrow=classic;endFill=1;" edge="1" parent="1">
          <mxGeometry relative="1" as="geometry">
            <mxPoint x="145" y="809" as="sourcePoint" />
            <mxPoint x="145" y="785" as="targetPoint" />
          </mxGeometry>
        </mxCell>
        <mxCell id="3XGmtLu8GrF6CK6sY6nf-9" value="&lt;font style=&quot;font-size: 14px&quot;&gt;这是经过文字行检测算法后裁剪出来的一行文字&lt;/font&gt;" style="rounded=0;whiteSpace=wrap;html=1;shadow=0;sketch=1;fillColor=#B3B3B3;fillStyle=solid;align=left;fontSize=16;" vertex="1" parent="1">
          <mxGeometry x="100" y="810" width="366" height="32" as="geometry" />
        </mxCell>
        <mxCell id="3XGmtLu8GrF6CK6sY6nf-19" style="edgeStyle=orthogonalEdgeStyle;rounded=0;orthogonalLoop=1;jettySize=auto;html=1;exitX=0.25;exitY=0;exitDx=0;exitDy=0;endArrow=classic;endFill=1;" edge="1" parent="1" source="3XGmtLu8GrF6CK6sY6nf-10" target="3XGmtLu8GrF6CK6sY6nf-11">
          <mxGeometry relative="1" as="geometry" />
        </mxCell>
        <mxCell id="3XGmtLu8GrF6CK6sY6nf-10" value="" style="rounded=0;whiteSpace=wrap;html=1;shadow=0;sketch=1;fillColor=#B3B3B3;fillStyle=solid;align=left;labelBorderColor=#000000;fontStyle=1;fontSize=14;" vertex="1" parent="1">
          <mxGeometry x="100" y="770" width="180" height="16" as="geometry" />
        </mxCell>
        <mxCell id="3XGmtLu8GrF6CK6sY6nf-20" style="edgeStyle=orthogonalEdgeStyle;rounded=0;orthogonalLoop=1;jettySize=auto;html=1;exitX=0.5;exitY=0;exitDx=0;exitDy=0;entryX=0.5;entryY=1;entryDx=0;entryDy=0;endArrow=classic;endFill=1;" edge="1" parent="1" source="3XGmtLu8GrF6CK6sY6nf-11" target="3XGmtLu8GrF6CK6sY6nf-12">
          <mxGeometry relative="1" as="geometry" />
        </mxCell>
        <mxCell id="3XGmtLu8GrF6CK6sY6nf-24" style="edgeStyle=orthogonalEdgeStyle;rounded=0;orthogonalLoop=1;jettySize=auto;html=1;exitX=1;exitY=0.5;exitDx=0;exitDy=0;entryX=0;entryY=0.5;entryDx=0;entryDy=0;fontSize=16;endArrow=classic;endFill=1;" edge="1" parent="1" source="3XGmtLu8GrF6CK6sY6nf-11" target="3XGmtLu8GrF6CK6sY6nf-22">
          <mxGeometry relative="1" as="geometry" />
        </mxCell>
        <mxCell id="3XGmtLu8GrF6CK6sY6nf-30" value="attention" style="edgeLabel;html=1;align=center;verticalAlign=middle;resizable=0;points=[];fontSize=14;" vertex="1" connectable="0" parent="3XGmtLu8GrF6CK6sY6nf-24">
          <mxGeometry x="-0.1867" y="4" relative="1" as="geometry">
            <mxPoint as="offset" />
          </mxGeometry>
        </mxCell>
        <mxCell id="3XGmtLu8GrF6CK6sY6nf-11" value="" style="rounded=0;whiteSpace=wrap;html=1;shadow=0;sketch=1;fillColor=#B3B3B3;fillStyle=solid;align=left;labelBorderColor=#000000;fontStyle=1;fontSize=14;" vertex="1" parent="1">
          <mxGeometry x="100" y="740" width="90" height="8" as="geometry" />
        </mxCell>
        <mxCell id="3XGmtLu8GrF6CK6sY6nf-23" style="edgeStyle=orthogonalEdgeStyle;rounded=0;orthogonalLoop=1;jettySize=auto;html=1;exitX=1;exitY=0.25;exitDx=0;exitDy=0;entryX=0;entryY=0.5;entryDx=0;entryDy=0;fontSize=16;endArrow=classic;endFill=1;" edge="1" parent="1" source="3XGmtLu8GrF6CK6sY6nf-12" target="3XGmtLu8GrF6CK6sY6nf-21">
          <mxGeometry relative="1" as="geometry">
            <Array as="points">
              <mxPoint x="190" y="712" />
            </Array>
          </mxGeometry>
        </mxCell>
        <mxCell id="3XGmtLu8GrF6CK6sY6nf-29" value="attention" style="edgeLabel;html=1;align=center;verticalAlign=middle;resizable=0;points=[];fontSize=14;" vertex="1" connectable="0" parent="3XGmtLu8GrF6CK6sY6nf-23">
          <mxGeometry x="-0.1523" y="2" relative="1" as="geometry">
            <mxPoint as="offset" />
          </mxGeometry>
        </mxCell>
        <mxCell id="3XGmtLu8GrF6CK6sY6nf-12" value="" style="rounded=0;whiteSpace=wrap;html=1;shadow=0;sketch=1;fillColor=#B3B3B3;fillStyle=solid;align=left;labelBorderColor=#000000;fontStyle=1;fontSize=14;" vertex="1" parent="1">
          <mxGeometry x="100" y="710" width="90" height="4" as="geometry" />
        </mxCell>
        <mxCell id="3XGmtLu8GrF6CK6sY6nf-21" value="输出1" style="rounded=1;whiteSpace=wrap;html=1;shadow=0;sketch=1;fontSize=12;strokeColor=#4D4D4D;fillColor=#B3B3B3;gradientDirection=south;align=center;fillStyle=solid;" vertex="1" parent="1">
          <mxGeometry x="280" y="702" width="75" height="20" as="geometry" />
        </mxCell>
        <mxCell id="3XGmtLu8GrF6CK6sY6nf-22" value="输出2" style="rounded=1;whiteSpace=wrap;html=1;shadow=0;sketch=1;fontSize=13;strokeColor=#4D4D4D;fillColor=#B3B3B3;gradientDirection=south;align=center;fillStyle=solid;" vertex="1" parent="1">
          <mxGeometry x="280" y="734" width="74" height="20" as="geometry" />
        </mxCell>
        <mxCell id="3XGmtLu8GrF6CK6sY6nf-25" value="输入" style="text;html=1;strokeColor=none;fillColor=none;align=center;verticalAlign=middle;whiteSpace=wrap;rounded=0;shadow=0;sketch=1;fontSize=14;" vertex="1" parent="1">
          <mxGeometry x="51" y="816" width="40" height="20" as="geometry" />
        </mxCell>
        <mxCell id="3XGmtLu8GrF6CK6sY6nf-26" value="P0" style="text;html=1;strokeColor=none;fillColor=none;align=center;verticalAlign=middle;whiteSpace=wrap;rounded=0;shadow=0;sketch=1;fontSize=14;" vertex="1" parent="1">
          <mxGeometry x="51" y="768" width="40" height="20" as="geometry" />
        </mxCell>
        <mxCell id="3XGmtLu8GrF6CK6sY6nf-27" value="P1" style="text;html=1;strokeColor=none;fillColor=none;align=center;verticalAlign=middle;whiteSpace=wrap;rounded=0;shadow=0;sketch=1;fontSize=14;" vertex="1" parent="1">
          <mxGeometry x="51" y="734" width="40" height="20" as="geometry" />
        </mxCell>
        <mxCell id="3XGmtLu8GrF6CK6sY6nf-28" value="P2" style="text;html=1;strokeColor=none;fillColor=none;align=center;verticalAlign=middle;whiteSpace=wrap;rounded=0;shadow=0;sketch=1;fontSize=14;" vertex="1" parent="1">
          <mxGeometry x="51" y="702" width="40" height="20" as="geometry" />
        </mxCell>
        <mxCell id="3XGmtLu8GrF6CK6sY6nf-36" value="" style="shape=flexArrow;endArrow=classic;html=1;fontSize=12;" edge="1" parent="1">
          <mxGeometry width="50" height="50" relative="1" as="geometry">
            <mxPoint x="397" y="729" as="sourcePoint" />
            <mxPoint x="463" y="729" as="targetPoint" />
          </mxGeometry>
        </mxCell>
        <mxCell id="3XGmtLu8GrF6CK6sY6nf-41" value="输出" style="edgeLabel;html=1;align=center;verticalAlign=middle;resizable=0;points=[];fontSize=12;" vertex="1" connectable="0" parent="3XGmtLu8GrF6CK6sY6nf-36">
          <mxGeometry x="0.2208" y="-1" relative="1" as="geometry">
            <mxPoint x="-17" y="-2" as="offset" />
          </mxGeometry>
        </mxCell>
        <mxCell id="3XGmtLu8GrF6CK6sY6nf-39" value="" style="endArrow=oval;html=1;fontSize=12;endFill=1;" edge="1" parent="1">
          <mxGeometry width="50" height="50" relative="1" as="geometry">
            <mxPoint x="355" y="746" as="sourcePoint" />
            <mxPoint x="399" y="730" as="targetPoint" />
          </mxGeometry>
        </mxCell>
        <mxCell id="3XGmtLu8GrF6CK6sY6nf-40" value="" style="endArrow=oval;html=1;fontSize=12;exitX=1;exitY=0.5;exitDx=0;exitDy=0;endFill=1;" edge="1" parent="1" source="3XGmtLu8GrF6CK6sY6nf-21">
          <mxGeometry width="50" height="50" relative="1" as="geometry">
            <mxPoint x="241" y="700" as="sourcePoint" />
            <mxPoint x="399" y="728" as="targetPoint" />
          </mxGeometry>
        </mxCell>
        <mxCell id="3XGmtLu8GrF6CK6sY6nf-42" value="GOLANG算法应用层" style="rounded=1;whiteSpace=wrap;html=1;shadow=0;sketch=1;fontSize=12;gradientDirection=south;align=center;" vertex="1" parent="1">
          <mxGeometry x="568.5" y="768" width="386" height="55" as="geometry" />
        </mxCell>
        <mxCell id="3XGmtLu8GrF6CK6sY6nf-43" value="ACL封装层" style="rounded=1;whiteSpace=wrap;html=1;shadow=0;sketch=1;fontSize=12;gradientDirection=south;align=center;" vertex="1" parent="1">
          <mxGeometry x="566" y="865" width="177" height="71" as="geometry" />
        </mxCell>
        <mxCell id="3XGmtLu8GrF6CK6sY6nf-54" style="edgeStyle=orthogonalEdgeStyle;rounded=0;orthogonalLoop=1;jettySize=auto;html=1;exitX=0.5;exitY=0;exitDx=0;exitDy=0;entryX=0.5;entryY=1;entryDx=0;entryDy=0;fontSize=12;endArrow=oval;endFill=1;" edge="1" parent="1" source="3XGmtLu8GrF6CK6sY6nf-45" target="3XGmtLu8GrF6CK6sY6nf-43">
          <mxGeometry relative="1" as="geometry" />
        </mxCell>
        <mxCell id="3XGmtLu8GrF6CK6sY6nf-45" value="华为Atlas加速卡" style="rounded=1;whiteSpace=wrap;html=1;shadow=0;sketch=1;fontSize=12;gradientDirection=south;align=center;" vertex="1" parent="1">
          <mxGeometry x="566" y="979" width="177" height="68.5" as="geometry" />
        </mxCell>
        <mxCell id="3XGmtLu8GrF6CK6sY6nf-46" value="ONNXRUNTIME封装层" style="rounded=1;whiteSpace=wrap;html=1;shadow=0;sketch=1;fontSize=12;gradientDirection=south;align=center;" vertex="1" parent="1">
          <mxGeometry x="782" y="865" width="177" height="71" as="geometry" />
        </mxCell>
        <mxCell id="3XGmtLu8GrF6CK6sY6nf-53" style="edgeStyle=orthogonalEdgeStyle;rounded=0;orthogonalLoop=1;jettySize=auto;html=1;exitX=0.5;exitY=0;exitDx=0;exitDy=0;fontSize=12;endArrow=oval;endFill=1;" edge="1" parent="1" source="3XGmtLu8GrF6CK6sY6nf-47">
          <mxGeometry relative="1" as="geometry">
            <mxPoint x="871" y="935" as="targetPoint" />
          </mxGeometry>
        </mxCell>
        <mxCell id="3XGmtLu8GrF6CK6sY6nf-47" value="英伟达加速卡" style="rounded=1;whiteSpace=wrap;html=1;shadow=0;sketch=1;fontSize=12;gradientDirection=south;align=center;" vertex="1" parent="1">
          <mxGeometry x="782" y="979" width="177" height="71" as="geometry" />
        </mxCell>
        <mxCell id="3XGmtLu8GrF6CK6sY6nf-48" value="" style="shape=link;html=1;fontSize=12;endArrow=oval;endFill=1;" edge="1" parent="1">
          <mxGeometry width="100" relative="1" as="geometry">
            <mxPoint x="537" y="947" as="sourcePoint" />
            <mxPoint x="989" y="947" as="targetPoint" />
          </mxGeometry>
        </mxCell>
        <mxCell id="3XGmtLu8GrF6CK6sY6nf-50" value="加速卡" style="text;strokeColor=none;fillColor=none;align=left;verticalAlign=top;spacingLeft=4;spacingRight=4;overflow=hidden;rotatable=0;points=[[0,0.5],[1,0.5]];portConstraint=eastwest;rounded=0;shadow=0;sketch=1;fontSize=12;" vertex="1" parent="1">
          <mxGeometry x="532" y="949" width="60" height="26" as="geometry" />
        </mxCell>
        <mxCell id="3XGmtLu8GrF6CK6sY6nf-51" value="" style="shape=link;html=1;fontSize=12;endArrow=oval;endFill=1;" edge="1" parent="1">
          <mxGeometry width="100" relative="1" as="geometry">
            <mxPoint x="534" y="834" as="sourcePoint" />
            <mxPoint x="986.0000000000002" y="834" as="targetPoint" />
          </mxGeometry>
        </mxCell>
        <mxCell id="3XGmtLu8GrF6CK6sY6nf-52" value="OCV" style="text;strokeColor=none;fillColor=none;align=left;verticalAlign=top;spacingLeft=4;spacingRight=4;overflow=hidden;rotatable=0;points=[[0,0.5],[1,0.5]];portConstraint=eastwest;rounded=0;shadow=0;sketch=1;fontSize=12;" vertex="1" parent="1">
          <mxGeometry x="532" y="839" width="41" height="26" as="geometry" />
        </mxCell>
        <mxCell id="3XGmtLu8GrF6CK6sY6nf-55" value="统一算法接口层" style="rounded=1;whiteSpace=wrap;html=1;shadow=0;sketch=1;fontSize=12;strokeColor=#4D4D4D;fillColor=#B3B3B3;gradientDirection=south;align=center;" vertex="1" parent="1">
          <mxGeometry x="565.5" y="846" width="389" height="19" as="geometry" />
        </mxCell>
        <mxCell id="3XGmtLu8GrF6CK6sY6nf-56" value="ACL接口层" style="rounded=1;whiteSpace=wrap;html=1;shadow=0;sketch=1;fontSize=12;strokeColor=#4D4D4D;fillColor=#B3B3B3;gradientDirection=south;align=center;" vertex="1" parent="1">
          <mxGeometry x="566" y="960" width="175" height="19" as="geometry" />
        </mxCell>
        <mxCell id="3XGmtLu8GrF6CK6sY6nf-57" value="ONNXRUNTIME" style="rounded=1;whiteSpace=wrap;html=1;shadow=0;sketch=1;fontSize=12;strokeColor=#4D4D4D;fillColor=#B3B3B3;gradientDirection=south;align=center;" vertex="1" parent="1">
          <mxGeometry x="784" y="960" width="175" height="19" as="geometry" />
        </mxCell>
        <mxCell id="3XGmtLu8GrF6CK6sY6nf-58" value="" style="ellipse;whiteSpace=wrap;html=1;rounded=0;shadow=0;sketch=1;fontSize=12;gradientDirection=south;align=center;" vertex="1" parent="1">
          <mxGeometry x="598" y="466" width="322" height="219" as="geometry" />
        </mxCell>
        <mxCell id="3XGmtLu8GrF6CK6sY6nf-59" value="DYDM" style="ellipse;whiteSpace=wrap;html=1;aspect=fixed;rounded=0;shadow=0;sketch=1;fontSize=12;gradientDirection=south;align=center;fillColor=#dae8fc;strokeColor=#6c8ebf;gradientColor=#7ea6e0;" vertex="1" parent="1">
          <mxGeometry x="726" y="503" width="43" height="43" as="geometry" />
        </mxCell>
        <mxCell id="3XGmtLu8GrF6CK6sY6nf-60" value="DYDM" style="ellipse;whiteSpace=wrap;html=1;aspect=fixed;rounded=0;shadow=0;sketch=1;fontSize=12;gradientDirection=south;align=center;gradientColor=#7ea6e0;fillColor=#dae8fc;strokeColor=#6c8ebf;" vertex="1" parent="1">
          <mxGeometry x="779" y="503" width="43" height="43" as="geometry" />
        </mxCell>
        <mxCell id="3XGmtLu8GrF6CK6sY6nf-62" value="DYDD" style="ellipse;whiteSpace=wrap;html=1;aspect=fixed;rounded=0;shadow=0;sketch=1;fontSize=12;gradientDirection=south;align=center;fillColor=#d0cee2;strokeColor=#56517e;" vertex="1" parent="1">
          <mxGeometry x="626" y="539" width="43" height="43" as="geometry" />
        </mxCell>
        <mxCell id="3XGmtLu8GrF6CK6sY6nf-63" value="DYDD" style="ellipse;whiteSpace=wrap;html=1;aspect=fixed;rounded=0;shadow=0;sketch=1;fontSize=12;gradientDirection=south;align=center;fillColor=#d0cee2;strokeColor=#56517e;" vertex="1" parent="1">
          <mxGeometry x="683" y="546" width="43" height="43" as="geometry" />
        </mxCell>
        <mxCell id="3XGmtLu8GrF6CK6sY6nf-64" value="TOCR" style="ellipse;whiteSpace=wrap;html=1;aspect=fixed;rounded=0;shadow=0;sketch=1;fontSize=12;gradientDirection=south;align=center;fillColor=#fad7ac;strokeColor=#b46504;" vertex="1" parent="1">
          <mxGeometry x="736" y="553" width="43" height="43" as="geometry" />
        </mxCell>
        <mxCell id="3XGmtLu8GrF6CK6sY6nf-65" value="TOCR" style="ellipse;whiteSpace=wrap;html=1;aspect=fixed;rounded=0;shadow=0;sketch=1;fontSize=12;gradientDirection=south;align=center;fillColor=#fad7ac;strokeColor=#b46504;" vertex="1" parent="1">
          <mxGeometry x="783" y="553" width="43" height="43" as="geometry" />
        </mxCell>
        <mxCell id="3XGmtLu8GrF6CK6sY6nf-66" value="VORI" style="ellipse;whiteSpace=wrap;html=1;aspect=fixed;rounded=0;shadow=0;sketch=1;fontSize=12;gradientDirection=south;align=center;gradientColor=#97d077;fillColor=#d5e8d4;strokeColor=#82b366;" vertex="1" parent="1">
          <mxGeometry x="832" y="503" width="43" height="43" as="geometry" />
        </mxCell>
        <mxCell id="3XGmtLu8GrF6CK6sY6nf-67" value="VORI" style="ellipse;whiteSpace=wrap;html=1;aspect=fixed;rounded=0;shadow=0;sketch=1;fontSize=12;gradientDirection=south;align=center;gradientColor=#97d077;fillColor=#d5e8d4;strokeColor=#82b366;" vertex="1" parent="1">
          <mxGeometry x="840" y="557" width="43" height="43" as="geometry" />
        </mxCell>
        <mxCell id="3XGmtLu8GrF6CK6sY6nf-68" value="DYBP" style="ellipse;whiteSpace=wrap;html=1;aspect=fixed;rounded=0;shadow=0;sketch=1;fontSize=12;gradientDirection=south;align=center;gradientColor=#ffa500;fillColor=#ffcd28;strokeColor=#d79b00;" vertex="1" parent="1">
          <mxGeometry x="687" y="604" width="43" height="43" as="geometry" />
        </mxCell>
        <mxCell id="3XGmtLu8GrF6CK6sY6nf-69" value="DYBP" style="ellipse;whiteSpace=wrap;html=1;aspect=fixed;rounded=0;shadow=0;sketch=1;fontSize=12;gradientDirection=south;align=center;gradientColor=#ffa500;fillColor=#ffcd28;strokeColor=#d79b00;" vertex="1" parent="1">
          <mxGeometry x="740" y="604" width="43" height="43" as="geometry" />
        </mxCell>
        <mxCell id="3XGmtLu8GrF6CK6sY6nf-70" value="" style="shape=flexArrow;endArrow=classic;html=1;fontSize=12;entryX=0;entryY=0.5;entryDx=0;entryDy=0;" edge="1" parent="1" target="3XGmtLu8GrF6CK6sY6nf-58">
          <mxGeometry width="50" height="50" relative="1" as="geometry">
            <mxPoint x="514" y="576" as="sourcePoint" />
            <mxPoint x="598" y="575" as="targetPoint" />
            <Array as="points">
              <mxPoint x="576" y="576" />
            </Array>
          </mxGeometry>
        </mxCell>
        <mxCell id="3XGmtLu8GrF6CK6sY6nf-71" value="BEES" style="text;html=1;strokeColor=none;fillColor=none;align=center;verticalAlign=middle;whiteSpace=wrap;rounded=0;shadow=0;sketch=1;fontSize=12;" vertex="1" parent="1">
          <mxGeometry x="738" y="474" width="40" height="20" as="geometry" />
        </mxCell>
        <mxCell id="3XGmtLu8GrF6CK6sY6nf-72" value="TOCR" style="ellipse;whiteSpace=wrap;html=1;aspect=fixed;rounded=0;shadow=0;sketch=1;fontSize=12;gradientDirection=south;align=center;fillColor=#fad7ac;strokeColor=#b46504;" vertex="1" parent="1">
          <mxGeometry x="804" y="610" width="43" height="43" as="geometry" />
        </mxCell>
        <mxCell id="3XGmtLu8GrF6CK6sY6nf-73" value="DYDD" style="ellipse;whiteSpace=wrap;html=1;aspect=fixed;rounded=0;shadow=0;sketch=1;fontSize=12;gradientDirection=south;align=center;fillColor=#d0cee2;strokeColor=#56517e;" vertex="1" parent="1">
          <mxGeometry x="664" y="496" width="43" height="43" as="geometry" />
        </mxCell>
        <mxCell id="3XGmtLu8GrF6CK6sY6nf-74" value="DYBP" style="ellipse;whiteSpace=wrap;html=1;aspect=fixed;rounded=0;shadow=0;sketch=1;fontSize=12;gradientDirection=south;align=center;gradientColor=#ffa500;fillColor=#ffcd28;strokeColor=#d79b00;" vertex="1" parent="1">
          <mxGeometry x="635" y="593" width="43" height="43" as="geometry" />
        </mxCell>
        <mxCell id="3XGmtLu8GrF6CK6sY6nf-75" value="VORI" style="ellipse;whiteSpace=wrap;html=1;aspect=fixed;rounded=0;shadow=0;sketch=1;fontSize=12;gradientDirection=south;align=center;gradientColor=#97d077;fillColor=#d5e8d4;strokeColor=#82b366;" vertex="1" parent="1">
          <mxGeometry x="851" y="600" width="43" height="43" as="geometry" />
        </mxCell>
        <mxCell id="3XGmtLu8GrF6CK6sY6nf-76" value="" style="shape=flexArrow;endArrow=classic;html=1;fontSize=12;" edge="1" parent="1">
          <mxGeometry width="50" height="50" relative="1" as="geometry">
            <mxPoint x="920" y="571.5" as="sourcePoint" />
            <mxPoint x="982" y="571" as="targetPoint" />
            <Array as="points">
              <mxPoint x="982" y="571.5" />
            </Array>
          </mxGeometry>
        </mxCell>
        <mxCell id="3XGmtLu8GrF6CK6sY6nf-77" value="请求" style="text;html=1;strokeColor=none;fillColor=none;align=center;verticalAlign=middle;whiteSpace=wrap;rounded=0;shadow=0;sketch=1;fontSize=12;" vertex="1" parent="1">
          <mxGeometry x="531" y="551" width="40" height="20" as="geometry" />
        </mxCell>
        <mxCell id="3XGmtLu8GrF6CK6sY6nf-78" value="输出空闲算法实例" style="text;html=1;strokeColor=none;fillColor=none;align=center;verticalAlign=middle;whiteSpace=wrap;rounded=0;shadow=0;sketch=1;fontSize=12;" vertex="1" parent="1">
          <mxGeometry x="982.5" y="557.5" width="40" height="20" as="geometry" />
        </mxCell>
        <mxCell id="3XGmtLu8GrF6CK6sY6nf-81" value="" style="edgeStyle=orthogonalEdgeStyle;rounded=0;orthogonalLoop=1;jettySize=auto;html=1;fontSize=12;endArrow=oval;endFill=1;" edge="1" parent="1" source="3XGmtLu8GrF6CK6sY6nf-79" target="3XGmtLu8GrF6CK6sY6nf-80">
          <mxGeometry relative="1" as="geometry" />
        </mxCell>
        <mxCell id="3XGmtLu8GrF6CK6sY6nf-79" value="输入图片" style="rounded=1;whiteSpace=wrap;html=1;shadow=0;sketch=1;fontSize=12;gradientDirection=south;align=center;gradientColor=#b3b3b3;fillColor=#f5f5f5;strokeColor=#666666;" vertex="1" parent="1">
          <mxGeometry x="1236" y="427" width="129" height="43" as="geometry" />
        </mxCell>
        <mxCell id="3XGmtLu8GrF6CK6sY6nf-96" value="" style="edgeStyle=orthogonalEdgeStyle;rounded=0;orthogonalLoop=1;jettySize=auto;html=1;fontSize=12;endArrow=oval;endFill=1;" edge="1" parent="1" source="3XGmtLu8GrF6CK6sY6nf-80" target="3XGmtLu8GrF6CK6sY6nf-95">
          <mxGeometry relative="1" as="geometry" />
        </mxCell>
        <mxCell id="3XGmtLu8GrF6CK6sY6nf-118" value="" style="edgeStyle=orthogonalEdgeStyle;rounded=0;orthogonalLoop=1;jettySize=auto;html=1;fontSize=12;endArrow=oval;endFill=1;" edge="1" parent="1" target="3XGmtLu8GrF6CK6sY6nf-79">
          <mxGeometry relative="1" as="geometry">
            <mxPoint x="1301" y="490" as="sourcePoint" />
          </mxGeometry>
        </mxCell>
        <mxCell id="3XGmtLu8GrF6CK6sY6nf-80" value="预处理" style="rounded=1;whiteSpace=wrap;html=1;shadow=0;gradientDirection=south;sketch=1;" vertex="1" parent="1">
          <mxGeometry x="1240.5" y="496" width="120" height="41" as="geometry" />
        </mxCell>
        <mxCell id="3XGmtLu8GrF6CK6sY6nf-98" value="Y" style="edgeStyle=orthogonalEdgeStyle;rounded=0;orthogonalLoop=1;jettySize=auto;html=1;fontSize=12;endArrow=oval;endFill=1;" edge="1" parent="1" source="3XGmtLu8GrF6CK6sY6nf-95" target="3XGmtLu8GrF6CK6sY6nf-97">
          <mxGeometry relative="1" as="geometry" />
        </mxCell>
        <mxCell id="3XGmtLu8GrF6CK6sY6nf-100" value="N" style="edgeStyle=orthogonalEdgeStyle;rounded=0;orthogonalLoop=1;jettySize=auto;html=1;fontSize=12;endArrow=oval;endFill=1;" edge="1" parent="1" source="3XGmtLu8GrF6CK6sY6nf-95" target="3XGmtLu8GrF6CK6sY6nf-99">
          <mxGeometry relative="1" as="geometry" />
        </mxCell>
        <mxCell id="3XGmtLu8GrF6CK6sY6nf-95" value="是否需要检测目标" style="rhombus;whiteSpace=wrap;html=1;rounded=1;shadow=0;gradientDirection=south;sketch=1;" vertex="1" parent="1">
          <mxGeometry x="1260.5" y="565" width="80" height="80" as="geometry" />
        </mxCell>
        <mxCell id="3XGmtLu8GrF6CK6sY6nf-108" style="edgeStyle=orthogonalEdgeStyle;rounded=0;orthogonalLoop=1;jettySize=auto;html=1;entryX=0.5;entryY=0;entryDx=0;entryDy=0;fontSize=12;endArrow=oval;endFill=1;" edge="1" parent="1" source="3XGmtLu8GrF6CK6sY6nf-97" target="3XGmtLu8GrF6CK6sY6nf-107">
          <mxGeometry relative="1" as="geometry" />
        </mxCell>
        <mxCell id="3XGmtLu8GrF6CK6sY6nf-97" value="DYDD目标检测" style="rounded=1;whiteSpace=wrap;html=1;shadow=0;gradientDirection=south;sketch=1;" vertex="1" parent="1">
          <mxGeometry x="1240.5" y="673" width="120.5" height="41" as="geometry" />
        </mxCell>
        <mxCell id="3XGmtLu8GrF6CK6sY6nf-104" value="Y" style="edgeStyle=orthogonalEdgeStyle;rounded=0;orthogonalLoop=1;jettySize=auto;html=1;fontSize=12;endArrow=oval;endFill=1;" edge="1" parent="1" source="3XGmtLu8GrF6CK6sY6nf-99" target="3XGmtLu8GrF6CK6sY6nf-103">
          <mxGeometry relative="1" as="geometry" />
        </mxCell>
        <mxCell id="3XGmtLu8GrF6CK6sY6nf-111" value="N" style="edgeStyle=orthogonalEdgeStyle;rounded=0;orthogonalLoop=1;jettySize=auto;html=1;exitX=1;exitY=0.5;exitDx=0;exitDy=0;entryX=1;entryY=0.5;entryDx=0;entryDy=0;fontSize=12;endArrow=oval;endFill=1;" edge="1" parent="1" source="3XGmtLu8GrF6CK6sY6nf-99" target="3XGmtLu8GrF6CK6sY6nf-107">
          <mxGeometry x="-0.4751" relative="1" as="geometry">
            <Array as="points">
              <mxPoint x="1530" y="606" />
              <mxPoint x="1530" y="772" />
            </Array>
            <mxPoint as="offset" />
          </mxGeometry>
        </mxCell>
        <mxCell id="3XGmtLu8GrF6CK6sY6nf-99" value="是否需要分割目标" style="rhombus;whiteSpace=wrap;html=1;rounded=1;shadow=0;gradientDirection=south;sketch=1;" vertex="1" parent="1">
          <mxGeometry x="1405" y="566" width="80" height="80" as="geometry" />
        </mxCell>
        <mxCell id="3XGmtLu8GrF6CK6sY6nf-109" style="edgeStyle=orthogonalEdgeStyle;rounded=0;orthogonalLoop=1;jettySize=auto;html=1;entryX=1;entryY=0.5;entryDx=0;entryDy=0;fontSize=12;endArrow=oval;endFill=1;" edge="1" parent="1" source="3XGmtLu8GrF6CK6sY6nf-103" target="3XGmtLu8GrF6CK6sY6nf-107">
          <mxGeometry relative="1" as="geometry">
            <Array as="points">
              <mxPoint x="1451" y="772" />
              <mxPoint x="1381" y="772" />
            </Array>
          </mxGeometry>
        </mxCell>
        <mxCell id="3XGmtLu8GrF6CK6sY6nf-103" value="DYDM目标分割" style="whiteSpace=wrap;html=1;rounded=1;shadow=0;gradientDirection=south;sketch=1;" vertex="1" parent="1">
          <mxGeometry x="1387.5" y="673" width="115" height="43" as="geometry" />
        </mxCell>
        <mxCell id="3XGmtLu8GrF6CK6sY6nf-113" style="edgeStyle=orthogonalEdgeStyle;rounded=0;orthogonalLoop=1;jettySize=auto;html=1;entryX=0.5;entryY=0;entryDx=0;entryDy=0;fontSize=12;endArrow=oval;endFill=1;" edge="1" parent="1" source="3XGmtLu8GrF6CK6sY6nf-107" target="3XGmtLu8GrF6CK6sY6nf-112">
          <mxGeometry relative="1" as="geometry" />
        </mxCell>
        <mxCell id="3XGmtLu8GrF6CK6sY6nf-107" value="VORI方向识别" style="rounded=1;whiteSpace=wrap;html=1;shadow=0;gradientDirection=south;sketch=1;" vertex="1" parent="1">
          <mxGeometry x="1240" y="751" width="120.5" height="43" as="geometry" />
        </mxCell>
        <mxCell id="3XGmtLu8GrF6CK6sY6nf-115" value="" style="edgeStyle=orthogonalEdgeStyle;rounded=0;orthogonalLoop=1;jettySize=auto;html=1;fontSize=12;endArrow=oval;endFill=1;" edge="1" parent="1" source="3XGmtLu8GrF6CK6sY6nf-112" target="3XGmtLu8GrF6CK6sY6nf-114">
          <mxGeometry relative="1" as="geometry" />
        </mxCell>
        <mxCell id="3XGmtLu8GrF6CK6sY6nf-112" value="TOCR文字识别" style="rounded=1;whiteSpace=wrap;html=1;shadow=0;gradientDirection=south;sketch=1;" vertex="1" parent="1">
          <mxGeometry x="1240" y="831.5" width="120.5" height="41" as="geometry" />
        </mxCell>
        <mxCell id="3XGmtLu8GrF6CK6sY6nf-117" value="" style="edgeStyle=orthogonalEdgeStyle;rounded=0;orthogonalLoop=1;jettySize=auto;html=1;fontSize=12;endArrow=oval;endFill=1;" edge="1" parent="1" source="3XGmtLu8GrF6CK6sY6nf-114" target="3XGmtLu8GrF6CK6sY6nf-116">
          <mxGeometry relative="1" as="geometry" />
        </mxCell>
        <mxCell id="3XGmtLu8GrF6CK6sY6nf-114" value="TEMP文本结构化" style="whiteSpace=wrap;html=1;rounded=1;shadow=0;gradientDirection=south;sketch=1;" vertex="1" parent="1">
          <mxGeometry x="1240.25" y="906" width="120" height="36" as="geometry" />
        </mxCell>
        <mxCell id="3XGmtLu8GrF6CK6sY6nf-116" value="输出" style="whiteSpace=wrap;html=1;rounded=1;shadow=0;gradientDirection=south;sketch=1;gradientColor=#97d077;fillColor=#d5e8d4;strokeColor=#82b366;" vertex="1" parent="1">
          <mxGeometry x="1240" y="966" width="120" height="35" as="geometry" />
        </mxCell>
      </root>
    </mxGraphModel>
  </diagram>
</mxfile>
